<svg width="79" height="80" viewBox="0 0 79 80" fill="none" xmlns="http://www.w3.org/2000/svg">
<path d="M14.8906 74.1664H44.262C45.5599 74.1649 46.8041 73.6487 47.7218 72.7309C48.6395 71.8132 49.1558 70.569 49.1573 69.2711V61.9283H44.262V69.2711H14.8906V10.5283H44.262V17.8711H49.1573V10.5283C49.1558 9.23045 48.6395 7.9862 47.7218 7.06848C46.8041 6.15077 45.5599 5.63455 44.262 5.63306H14.8906C13.5928 5.63455 12.3485 6.15077 11.4308 7.06848C10.5131 7.9862 9.99685 9.23045 9.99536 10.5283V69.2711C9.99685 70.569 10.5131 71.8132 11.4308 72.7309C12.3485 73.6487 13.5928 74.1649 14.8906 74.1664Z" fill="black"/>
<path d="M50.5914 51.1245L59.3686 42.3473H24.6809V37.4521H59.3686L50.5914 28.6749L54.0523 25.214L68.738 39.8997L54.0523 54.5854L50.5914 51.1245Z" fill="black"/>
</svg>
