<svg width="86" height="87" viewBox="0 0 86 87" fill="none" xmlns="http://www.w3.org/2000/svg">
<path d="M57.5394 62.5312L43 47.8255L28.4606 62.5312L24.1875 58.2084L38.7242 43.5L24.1875 28.7943L28.4633 24.4688L43 39.1745L57.5367 24.4688L61.8125 28.7943L47.2758 43.5L61.8125 58.2084L57.5394 62.5312Z" fill="black"/>
<path d="M43 10.875C49.3785 10.875 55.6137 12.7884 60.9172 16.3733C66.2206 19.9582 70.3542 25.0535 72.7951 31.015C75.2361 36.9764 75.8747 43.5362 74.6303 49.8648C73.386 56.1935 70.3145 62.0067 65.8042 66.5694C61.294 71.132 55.5476 74.2393 49.2917 75.4981C43.0358 76.757 36.5514 76.1109 30.6585 73.6416C24.7656 71.1723 19.7288 66.9906 16.1851 61.6255C12.6414 56.2603 10.75 49.9526 10.75 43.5C10.7597 34.8503 14.1606 26.5577 20.2065 20.4415C26.2525 14.3252 34.4498 10.8848 43 10.875ZM43 5.4375C35.5585 5.4375 28.2841 7.66983 22.0967 11.8522C15.9093 16.0345 11.0868 21.9791 8.23905 28.9341C5.3913 35.8891 4.6462 43.5422 6.09797 50.9256C7.54974 58.309 11.1332 65.0911 16.3951 70.4143C21.6571 75.7374 28.3612 79.3625 35.6597 80.8311C42.9583 82.2998 50.5234 81.546 57.3985 78.6652C64.2736 75.7843 70.1498 70.9057 74.2841 64.6464C78.4184 58.387 80.625 51.0281 80.625 43.5C80.625 33.4052 76.661 23.7239 69.6049 16.5857C62.5489 9.44764 52.9788 5.4375 43 5.4375Z" fill="black"/>
</svg>
