<svg width="77" height="77" viewBox="0 0 77 77" fill="none" xmlns="http://www.w3.org/2000/svg">
<path d="M43.9141 60.1562H21.6562V16.8438H42.1094C44.5208 16.8439 46.8819 17.5342 48.9135 18.8332C50.9452 20.1322 52.5627 21.9855 53.5748 24.1743C54.587 26.363 54.9515 28.7958 54.6254 31.185C54.2992 33.5743 53.2961 35.8204 51.7344 37.6578C53.7742 39.2891 55.2582 41.5127 55.9822 44.0223C56.7061 46.5319 56.6344 49.2042 55.7768 51.6713C54.9192 54.1384 53.318 56.2791 51.1936 57.7986C49.0692 59.3182 46.526 60.1418 43.9141 60.1562ZM28.875 52.9375H43.8659C44.5769 52.9375 45.2809 52.7975 45.9378 52.5254C46.5947 52.2533 47.1915 51.8545 47.6943 51.3518C48.197 50.849 48.5958 50.2522 48.8679 49.5953C49.14 48.9384 49.28 48.2344 49.28 47.5234C49.28 46.8125 49.14 46.1084 48.8679 45.4516C48.5958 44.7947 48.197 44.1979 47.6943 43.6951C47.1915 43.1924 46.5947 42.7936 45.9378 42.5215C45.2809 42.2494 44.5769 42.1094 43.8659 42.1094H28.875V52.9375ZM28.875 34.8906H42.1094C42.8204 34.8906 43.5244 34.7506 44.1812 34.4785C44.8381 34.2064 45.435 33.8076 45.9377 33.3049C46.4404 32.8021 46.8392 32.2053 47.1113 31.5484C47.3834 30.8916 47.5234 30.1875 47.5234 29.4766C47.5234 28.7656 47.3834 28.0616 47.1113 27.4047C46.8392 26.7478 46.4404 26.151 45.9377 25.6482C45.435 25.1455 44.8381 24.7467 44.1812 24.4746C43.5244 24.2025 42.8204 24.0625 42.1094 24.0625H28.875V34.8906Z" fill="black"/>
</svg>
