<svg width="77" height="77" viewBox="0 0 77 77" fill="none" xmlns="http://www.w3.org/2000/svg">
<path d="M67.375 62.5625H9.625V67.375H67.375V62.5625Z" fill="black"/>
<path d="M38.5 55.3438C34.0328 55.3438 29.7485 53.5691 26.5897 50.4103C23.4309 47.2515 21.6562 42.9672 21.6562 38.5V12.0312H26.4688V38.5C26.4688 41.6909 27.7363 44.7511 29.9926 47.0074C32.2489 49.2637 35.3091 50.5312 38.5 50.5312C41.6909 50.5312 44.7511 49.2637 47.0074 47.0074C49.2637 44.7511 50.5312 41.6909 50.5312 38.5V12.0312H55.3438V38.5C55.3438 42.9672 53.5691 47.2515 50.4103 50.4103C47.2515 53.5691 42.9672 55.3438 38.5 55.3438Z" fill="black"/>
</svg>
