<svg width="82" height="83" viewBox="0 0 82 83" fill="none" xmlns="http://www.w3.org/2000/svg">
<path d="M74.3125 12.9688C74.3125 11.5929 73.7725 10.2735 72.8114 9.30063C71.8503 8.32779 70.5467 7.78125 69.1875 7.78125H12.8125C11.4533 7.78125 10.1497 8.32779 9.18858 9.30063C8.22745 10.2735 7.6875 11.5929 7.6875 12.9688V70.0312C7.6875 71.4071 8.22745 72.7265 9.18858 73.6994C10.1497 74.6722 11.4533 75.2188 12.8125 75.2188H69.1875C70.5467 75.2188 71.8503 74.6722 72.8114 73.6994C73.7725 72.7265 74.3125 71.4071 74.3125 70.0312V12.9688ZM69.1875 12.9688V23.3438H12.8125V12.9688H69.1875ZM69.1875 70.0312H12.8125V59.6562H69.1875V70.0312ZM69.1875 54.4688H12.8125V44.0938H69.1875V54.4688ZM69.1875 38.9062H12.8125V28.5312H69.1875V38.9062Z" fill="black"/>
</svg>
